<mxfile host="app.diagrams.net" agent="Mozilla/5.0 (Windows NT 10.0; Win64; x64) AppleWebKit/537.36 (KHTML, like Gecko) Chrome/140.0.0.0 Safari/537.36" version="28.2.3">
  <diagram name="AWS-Infrastructure-Final" id="aws-devops-final">
    <mxGraphModel dx="1737" dy="937" grid="1" gridSize="10" guides="1" tooltips="1" connect="1" arrows="1" fold="1" page="1" pageScale="1" pageWidth="827" pageHeight="1169" math="0" shadow="0">
      <root>
        <mxCell id="0" />
        <mxCell id="1" parent="0" />
        <mxCell id="aws-account" value="AWS Account - DevOps Assignment" style="rounded=1;whiteSpace=wrap;html=1;fillColor=#E3F2FD;strokeColor=#1976D2;strokeWidth=3;fontSize=18;fontStyle=1;verticalAlign=top;spacingTop=15;arcSize=17;" parent="1" vertex="1">
          <mxGeometry x="50" y="50" width="1700" height="1100" as="geometry" />
        </mxCell>
        <mxCell id="vpc-container" value="VPC (10.0.0.0/16)" style="rounded=0;whiteSpace=wrap;html=1;fillColor=#F5F5F5;strokeColor=#666666;strokeWidth=3;dashed=1;fontSize=16;fontStyle=1;verticalAlign=top;spacingTop=15;" parent="1" vertex="1">
          <mxGeometry x="100" y="250" width="1600" height="750" as="geometry" />
        </mxCell>
        <mxCell id="igw" value="Internet Gateway" style="sketch=0;outlineConnect=0;fontColor=#232F3E;gradientColor=none;fillColor=#4AB5B5;strokeColor=none;dashed=0;verticalLabelPosition=bottom;verticalAlign=top;align=center;html=1;fontSize=12;fontStyle=1;aspect=fixed;pointerEvents=1;shape=mxgraph.aws4.internet_gateway;" parent="1" vertex="1">
          <mxGeometry x="840" y="110" width="100" height="100" as="geometry" />
        </mxCell>
        <mxCell id="az-1a" value="Availability Zone 1a (us-east-1a)" style="rounded=0;whiteSpace=wrap;html=1;fillColor=#FFF3E0;strokeColor=#F57C00;strokeWidth=2;fontSize=14;fontStyle=1;verticalAlign=top;spacingTop=15;" parent="1" vertex="1">
          <mxGeometry x="150" y="300" width="700" height="650" as="geometry" />
        </mxCell>
        <mxCell id="az-1b" value="Availability Zone 1b (us-east-1b)" style="rounded=0;whiteSpace=wrap;html=1;fillColor=#FFF3E0;strokeColor=#F57C00;strokeWidth=2;fontSize=14;fontStyle=1;verticalAlign=top;spacingTop=15;" parent="1" vertex="1">
          <mxGeometry x="900" y="300" width="700" height="650" as="geometry" />
        </mxCell>
        <mxCell id="pub-subnet-1" value="Public Subnet 1&#xa;(10.0.1.0/24)" style="rounded=0;whiteSpace=wrap;html=1;fillColor=#C8E6C9;strokeColor=#4CAF50;strokeWidth=2;fontSize=12;fontStyle=1;" parent="1" vertex="1">
          <mxGeometry x="360" y="350" width="300" height="120" as="geometry" />
        </mxCell>
        <mxCell id="pub-subnet-2" value="Public Subnet 2&#xa;(10.0.2.0/24)" style="rounded=0;whiteSpace=wrap;html=1;fillColor=#C8E6C9;strokeColor=#4CAF50;strokeWidth=2;fontSize=12;fontStyle=1;" parent="1" vertex="1">
          <mxGeometry x="1210" y="360" width="300" height="120" as="geometry" />
        </mxCell>
        <mxCell id="nat-1" value="NAT Gateway 1" style="sketch=0;outlineConnect=0;fontColor=#232F3E;gradientColor=none;fillColor=#4AB5B5;strokeColor=none;dashed=0;verticalLabelPosition=bottom;verticalAlign=top;align=center;html=1;fontSize=11;fontStyle=1;aspect=fixed;pointerEvents=1;shape=mxgraph.aws4.nat_gateway;" parent="1" vertex="1">
          <mxGeometry x="580" y="380" width="60" height="60" as="geometry" />
        </mxCell>
        <mxCell id="nat-2" value="NAT Gateway 2" style="sketch=0;outlineConnect=0;fontColor=#232F3E;gradientColor=none;fillColor=#4AB5B5;strokeColor=none;dashed=0;verticalLabelPosition=bottom;verticalAlign=top;align=center;html=1;fontSize=11;fontStyle=1;aspect=fixed;pointerEvents=1;shape=mxgraph.aws4.nat_gateway;" parent="1" vertex="1">
          <mxGeometry x="1430" y="390" width="60" height="60" as="geometry" />
        </mxCell>
        <mxCell id="priv-subnet-1" value="Private Subnet 1 (10.0.10.0/24)" style="rounded=0;whiteSpace=wrap;html=1;fillColor=#BBDEFB;strokeColor=#2196F3;strokeWidth=2;fontSize=12;fontStyle=1;verticalAlign=top;spacingTop=15;" parent="1" vertex="1">
          <mxGeometry x="200" y="520" width="600" height="400" as="geometry" />
        </mxCell>
        <mxCell id="priv-subnet-2" value="Private Subnet 2 (10.0.20.0/24)" style="rounded=0;whiteSpace=wrap;html=1;fillColor=#BBDEFB;strokeColor=#2196F3;strokeWidth=2;fontSize=12;fontStyle=1;verticalAlign=top;spacingTop=15;" parent="1" vertex="1">
          <mxGeometry x="950" y="520" width="600" height="400" as="geometry" />
        </mxCell>
        <mxCell id="node-group-1a" value="Node Group 1A&#xa;(General Purpose)&#xa;t3.medium (1-2)" style="rounded=0;whiteSpace=wrap;html=1;fillColor=#FFE0B2;strokeColor=#FF9800;strokeWidth=2;fontSize=10;fontStyle=1;" parent="1" vertex="1">
          <mxGeometry x="390" y="600" width="120" height="80" as="geometry" />
        </mxCell>
        <mxCell id="node-group-1b" value="Node Group 1B&#xa;(General Purpose)&#xa;t3.medium (1-2)" style="rounded=0;whiteSpace=wrap;html=1;fillColor=#FFE0B2;strokeColor=#FF9800;strokeWidth=2;fontSize=10;fontStyle=1;" parent="1" vertex="1">
          <mxGeometry x="1070" y="590" width="120" height="80" as="geometry" />
        </mxCell>
        <mxCell id="node-group-2a" value="Node Group 2A&#xa;(Spot Instances)&#xa;t3.medium/large (0-2)" style="rounded=0;whiteSpace=wrap;html=1;fillColor=#FFCDD2;strokeColor=#F44336;strokeWidth=2;fontSize=10;fontStyle=1;" parent="1" vertex="1">
          <mxGeometry x="610" y="580" width="120" height="80" as="geometry" />
        </mxCell>
        <mxCell id="node-group-2b" value="Node Group 2B&#xa;(Spot Instances)&#xa;t3.medium/large (0-1)" style="rounded=0;whiteSpace=wrap;html=1;fillColor=#FFCDD2;strokeColor=#F44336;strokeWidth=2;fontSize=10;fontStyle=1;" parent="1" vertex="1">
          <mxGeometry x="1270" y="590" width="120" height="80" as="geometry" />
        </mxCell>
        <mxCell id="rds-primary" value="RDS PostgreSQL&#xa;Primary&#xa;db.t3.micro&#xa;Multi-AZ Enabled" style="sketch=0;outlineConnect=0;fontColor=#232F3E;gradientColor=none;fillColor=#3F48CC;strokeColor=none;dashed=0;verticalLabelPosition=bottom;verticalAlign=top;align=center;html=1;fontSize=11;fontStyle=1;aspect=fixed;pointerEvents=1;shape=mxgraph.aws4.rds_postgresql_instance;" parent="1" vertex="1">
          <mxGeometry x="700" y="670" width="80" height="80" as="geometry" />
        </mxCell>
        <mxCell id="rds-standby" value="RDS PostgreSQL&#xa;Standby&#xa;Automatic Failover" style="sketch=0;outlineConnect=0;fontColor=#232F3E;gradientColor=none;fillColor=#3F48CC;strokeColor=none;dashed=0;verticalLabelPosition=bottom;verticalAlign=top;align=center;html=1;fontSize=11;fontStyle=1;aspect=fixed;pointerEvents=1;shape=mxgraph.aws4.rds_postgresql_instance;" parent="1" vertex="1">
          <mxGeometry x="980" y="670" width="80" height="80" as="geometry" />
        </mxCell>
        <mxCell id="redis-1" value="ElastiCache&#xa;Redis Node 1&#xa;cache.t3.micro" style="sketch=0;outlineConnect=0;fontColor=#232F3E;gradientColor=none;fillColor=#3F48CC;strokeColor=none;dashed=0;verticalLabelPosition=bottom;verticalAlign=top;align=center;html=1;fontSize=11;fontStyle=1;aspect=fixed;pointerEvents=1;shape=mxgraph.aws4.elasticache_for_redis;" parent="1" vertex="1">
          <mxGeometry x="250" y="770" width="80" height="80" as="geometry" />
        </mxCell>
        <mxCell id="redis-2" value="ElastiCache&#xa;Redis Node 2&#xa;cache.t3.micro" style="sketch=0;outlineConnect=0;fontColor=#232F3E;gradientColor=none;fillColor=#3F48CC;strokeColor=none;dashed=0;verticalLabelPosition=bottom;verticalAlign=top;align=center;html=1;fontSize=11;fontStyle=1;aspect=fixed;pointerEvents=1;shape=mxgraph.aws4.elasticache_for_redis;" parent="1" vertex="1">
          <mxGeometry x="1230" y="780" width="80" height="80" as="geometry" />
        </mxCell>
        <mxCell id="route-table-1" value="Route Table&#xa;Public" style="sketch=0;outlineConnect=0;fontColor=#232F3E;gradientColor=none;fillColor=#4AB5B5;strokeColor=none;dashed=0;verticalLabelPosition=bottom;verticalAlign=top;align=center;html=1;fontSize=10;fontStyle=1;aspect=fixed;pointerEvents=1;shape=mxgraph.aws4.route_table;" parent="1" vertex="1">
          <mxGeometry x="950" y="120" width="40" height="40" as="geometry" />
        </mxCell>
        <mxCell id="route-table-2" value="Route Table&#xa;Private" style="sketch=0;outlineConnect=0;fontColor=#232F3E;gradientColor=none;fillColor=#4AB5B5;strokeColor=none;dashed=0;verticalLabelPosition=bottom;verticalAlign=top;align=center;html=1;fontSize=10;fontStyle=1;aspect=fixed;pointerEvents=1;shape=mxgraph.aws4.route_table;" parent="1" vertex="1">
          <mxGeometry x="670" y="370" width="40" height="40" as="geometry" />
        </mxCell>
        <mxCell id="s3-assets" value="S3 Assets Bucket&#xa;Versioning + KMS" style="sketch=0;outlineConnect=0;fontColor=#232F3E;gradientColor=none;fillColor=#7AA116;strokeColor=none;dashed=0;verticalLabelPosition=bottom;verticalAlign=top;align=center;html=1;fontSize=12;fontStyle=1;aspect=fixed;pointerEvents=1;shape=mxgraph.aws4.s3;" parent="1" vertex="1">
          <mxGeometry x="200" y="1020" width="80" height="80" as="geometry" />
        </mxCell>
        <mxCell id="iam" value="IAM Roles &amp; Policies&#xa;Least Privilege Access" style="sketch=0;outlineConnect=0;fontColor=#232F3E;gradientColor=none;fillColor=#F58536;strokeColor=none;dashed=0;verticalLabelPosition=bottom;verticalAlign=top;align=center;html=1;fontSize=12;fontStyle=1;aspect=fixed;pointerEvents=1;shape=mxgraph.aws4.iam_role;" parent="1" vertex="1">
          <mxGeometry x="495" y="1020" width="70" height="70" as="geometry" />
        </mxCell>
        <mxCell id="kms" value="KMS Keys&#xa;Encryption at Rest" style="sketch=0;outlineConnect=0;fontColor=#232F3E;gradientColor=none;fillColor=#F58536;strokeColor=none;dashed=0;verticalLabelPosition=bottom;verticalAlign=top;align=center;html=1;fontSize=12;fontStyle=1;aspect=fixed;pointerEvents=1;shape=mxgraph.aws4.key_management_service;" parent="1" vertex="1">
          <mxGeometry x="630" y="1015" width="80" height="80" as="geometry" />
        </mxCell>
        <mxCell id="security-groups" value="Security Groups&#xa;&amp; NACLs" style="sketch=0;outlineConnect=0;fontColor=#232F3E;gradientColor=none;fillColor=#F58536;strokeColor=none;dashed=0;verticalLabelPosition=bottom;verticalAlign=top;align=center;html=1;fontSize=12;fontStyle=1;aspect=fixed;pointerEvents=1;shape=mxgraph.aws4.security_group;" parent="1" vertex="1">
          <mxGeometry x="750" y="1015" width="80" height="80" as="geometry" />
        </mxCell>
        <mxCell id="auto-scaling" value="Auto Scaling&#xa;CPU + Custom Metrics" style="sketch=0;outlineConnect=0;fontColor=#232F3E;gradientColor=none;fillColor=#ED7100;strokeColor=none;dashed=0;verticalLabelPosition=bottom;verticalAlign=top;align=center;html=1;fontSize=12;fontStyle=1;aspect=fixed;pointerEvents=1;shape=mxgraph.aws4.auto_scaling2;" parent="1" vertex="1">
          <mxGeometry x="870" y="1015" width="80" height="80" as="geometry" />
        </mxCell>
        <mxCell id="cloudwatch" value="CloudWatch&#xa;Metrics &amp; Alarms" style="sketch=0;outlineConnect=0;fontColor=#232F3E;gradientColor=none;fillColor=#759C3E;strokeColor=none;dashed=0;verticalLabelPosition=bottom;verticalAlign=top;align=center;html=1;fontSize=12;fontStyle=1;aspect=fixed;pointerEvents=1;shape=mxgraph.aws4.cloudwatch_2;" parent="1" vertex="1">
          <mxGeometry x="1000" y="1020" width="80" height="80" as="geometry" />
        </mxCell>
        <mxCell id="ecr" value="ECR Repository&#xa;Container Images" style="sketch=0;outlineConnect=0;fontColor=#232F3E;gradientColor=none;fillColor=#ED7100;strokeColor=none;dashed=0;verticalLabelPosition=bottom;verticalAlign=top;align=center;html=1;fontSize=12;fontStyle=1;aspect=fixed;pointerEvents=1;shape=mxgraph.aws4.ecr;" parent="1" vertex="1">
          <mxGeometry x="1120" y="1015" width="80" height="80" as="geometry" />
        </mxCell>
        <mxCell id="conn-igw-pub1" value="" style="endArrow=classic;html=1;strokeColor=#4CAF50;strokeWidth=3;curved=1;" parent="1" source="igw" target="pub-subnet-1" edge="1">
          <mxGeometry width="50" height="50" relative="1" as="geometry">
            <mxPoint x="400" y="500" as="sourcePoint" />
            <mxPoint x="450" y="450" as="targetPoint" />
          </mxGeometry>
        </mxCell>
        <mxCell id="conn-igw-pub2" value="" style="endArrow=classic;html=1;strokeColor=#4CAF50;strokeWidth=3;curved=1;" parent="1" source="igw" target="pub-subnet-2" edge="1">
          <mxGeometry width="50" height="50" relative="1" as="geometry">
            <mxPoint x="400" y="500" as="sourcePoint" />
            <mxPoint x="450" y="450" as="targetPoint" />
          </mxGeometry>
        </mxCell>
        <mxCell id="conn-nat1-priv1" value="Outbound Internet" style="endArrow=classic;html=1;strokeColor=#2196F3;strokeWidth=2;curved=1;labelBackgroundColor=#FFFFFF;fontSize=10;" parent="1" source="nat-1" target="priv-subnet-1" edge="1">
          <mxGeometry width="50" height="50" relative="1" as="geometry">
            <mxPoint x="400" y="500" as="sourcePoint" />
            <mxPoint x="450" y="450" as="targetPoint" />
          </mxGeometry>
        </mxCell>
        <mxCell id="conn-nat2-priv2" value="Outbound Internet" style="endArrow=classic;html=1;strokeColor=#2196F3;strokeWidth=2;curved=1;labelBackgroundColor=#FFFFFF;fontSize=10;" parent="1" source="nat-2" target="priv-subnet-2" edge="1">
          <mxGeometry width="50" height="50" relative="1" as="geometry">
            <mxPoint x="400" y="500" as="sourcePoint" />
            <mxPoint x="450" y="450" as="targetPoint" />
          </mxGeometry>
        </mxCell>
        <mxCell id="conn-eks-ng1b" value="Cluster Management" style="endArrow=classic;startArrow=classic;html=1;strokeColor=#FF9800;strokeWidth=2;dashed=1;curved=1;labelBackgroundColor=#FFFFFF;fontSize=10;" parent="1" source="eks-control-plane" target="node-group-1b" edge="1">
          <mxGeometry width="50" height="50" relative="1" as="geometry">
            <mxPoint x="400" y="500" as="sourcePoint" />
            <mxPoint x="450" y="450" as="targetPoint" />
          </mxGeometry>
        </mxCell>
        <mxCell id="conn-eks-ng2a" value="" style="endArrow=classic;startArrow=classic;html=1;strokeColor=#FF9800;strokeWidth=2;dashed=1;curved=1;" parent="1" source="eks-control-plane" target="node-group-2a" edge="1">
          <mxGeometry width="50" height="50" relative="1" as="geometry">
            <mxPoint x="400" y="500" as="sourcePoint" />
            <mxPoint x="450" y="450" as="targetPoint" />
          </mxGeometry>
        </mxCell>
        <mxCell id="conn-eks-ng2b" value="" style="endArrow=classic;startArrow=classic;html=1;strokeColor=#FF9800;strokeWidth=2;dashed=1;curved=1;" parent="1" source="eks-control-plane" target="node-group-2b" edge="1">
          <mxGeometry width="50" height="50" relative="1" as="geometry">
            <mxPoint x="400" y="500" as="sourcePoint" />
            <mxPoint x="450" y="450" as="targetPoint" />
          </mxGeometry>
        </mxCell>
        <mxCell id="conn-nodes-rds" value="Database Access" style="endArrow=classic;html=1;strokeColor=#3F48CC;strokeWidth=2;curved=1;labelBackgroundColor=#FFFFFF;fontSize=10;" parent="1" source="node-group-1a" target="rds-primary" edge="1">
          <mxGeometry width="50" height="50" relative="1" as="geometry">
            <mxPoint x="400" y="500" as="sourcePoint" />
            <mxPoint x="450" y="450" as="targetPoint" />
          </mxGeometry>
        </mxCell>
        <mxCell id="conn-nodes-redis" value="Cache Access" style="endArrow=classic;html=1;strokeColor=#3F48CC;strokeWidth=2;curved=1;labelBackgroundColor=#FFFFFF;fontSize=10;" parent="1" source="node-group-1a" target="redis-1" edge="1">
          <mxGeometry width="50" height="50" relative="1" as="geometry">
            <mxPoint x="400" y="500" as="sourcePoint" />
            <mxPoint x="450" y="450" as="targetPoint" />
          </mxGeometry>
        </mxCell>
        <mxCell id="conn-nodes2-rds" value="Database Access" style="endArrow=classic;html=1;strokeColor=#3F48CC;strokeWidth=2;curved=1;labelBackgroundColor=#FFFFFF;fontSize=10;" parent="1" source="node-group-1b" target="rds-primary" edge="1">
          <mxGeometry width="50" height="50" relative="1" as="geometry">
            <mxPoint x="400" y="500" as="sourcePoint" />
            <mxPoint x="450" y="450" as="targetPoint" />
          </mxGeometry>
        </mxCell>
        <mxCell id="conn-nodes2-redis" value="Cache Access" style="endArrow=classic;html=1;strokeColor=#3F48CC;strokeWidth=2;curved=1;labelBackgroundColor=#FFFFFF;fontSize=10;" parent="1" source="node-group-1b" target="redis-2" edge="1">
          <mxGeometry width="50" height="50" relative="1" as="geometry">
            <mxPoint x="400" y="500" as="sourcePoint" />
            <mxPoint x="450" y="450" as="targetPoint" />
          </mxGeometry>
        </mxCell>
        <mxCell id="conn-rds-multiaz" value="Multi-AZ Replication&#xa;Synchronous" style="endArrow=classic;startArrow=classic;html=1;strokeColor=#E91E63;strokeWidth=3;dashed=1;labelBackgroundColor=#FFFFFF;fontSize=11;fontStyle=1;" parent="1" source="rds-primary" target="rds-standby" edge="1">
          <mxGeometry width="50" height="50" relative="1" as="geometry">
            <mxPoint x="400" y="500" as="sourcePoint" />
            <mxPoint x="450" y="450" as="targetPoint" />
          </mxGeometry>
        </mxCell>
        <mxCell id="conn-redis-cluster" value="Redis Cluster&#xa;Replication" style="endArrow=classic;startArrow=classic;html=1;strokeColor=#9C27B0;strokeWidth=2;dashed=1;curved=1;labelBackgroundColor=#FFFFFF;fontSize=10;" parent="1" source="redis-1" target="redis-2" edge="1">
          <mxGeometry x="0.2174" y="-10" width="50" height="50" relative="1" as="geometry">
            <mxPoint x="400" y="500" as="sourcePoint" />
            <mxPoint x="450" y="450" as="targetPoint" />
            <mxPoint as="offset" />
          </mxGeometry>
        </mxCell>
        <mxCell id="conn-kms-rds" value="🔐" style="endArrow=classic;html=1;strokeColor=#F44336;strokeWidth=2;dashed=1;curved=1;labelBackgroundColor=#FFFFFF;fontSize=16;" parent="1" source="kms" edge="1">
          <mxGeometry width="50" height="50" relative="1" as="geometry">
            <mxPoint x="400" y="500" as="sourcePoint" />
            <mxPoint x="740" y="810" as="targetPoint" />
          </mxGeometry>
        </mxCell>
        <mxCell id="conn-kms-redis" value="🔐" style="endArrow=classic;html=1;strokeColor=#F44336;strokeWidth=2;dashed=1;curved=1;labelBackgroundColor=#FFFFFF;fontSize=16;" parent="1" source="kms" target="redis-1" edge="1">
          <mxGeometry width="50" height="50" relative="1" as="geometry">
            <mxPoint x="400" y="500" as="sourcePoint" />
            <mxPoint x="450" y="450" as="targetPoint" />
          </mxGeometry>
        </mxCell>
        <mxCell id="conn-kms-s3" value="🔐" style="endArrow=classic;html=1;strokeColor=#F44336;strokeWidth=2;dashed=1;curved=1;labelBackgroundColor=#FFFFFF;fontSize=16;" parent="1" source="s3-tfstate" target="s3-assets" edge="1">
          <mxGeometry width="50" height="50" relative="1" as="geometry">
            <mxPoint x="400" y="500" as="sourcePoint" />
            <mxPoint x="450" y="450" as="targetPoint" />
          </mxGeometry>
        </mxCell>
        <mxCell id="conn-autoscale-ng1" value="Auto Scaling" style="endArrow=classic;html=1;strokeColor=#ED7100;strokeWidth=2;dashed=1;curved=1;labelBackgroundColor=#FFFFFF;fontSize=10;" parent="1" source="auto-scaling" target="node-group-1a" edge="1">
          <mxGeometry x="-0.2434" y="1" width="50" height="50" relative="1" as="geometry">
            <mxPoint x="400" y="500" as="sourcePoint" />
            <mxPoint x="450" y="450" as="targetPoint" />
            <mxPoint y="-1" as="offset" />
          </mxGeometry>
        </mxCell>
        <mxCell id="conn-autoscale-ng2" value="Auto Scaling" style="endArrow=classic;html=1;strokeColor=#ED7100;strokeWidth=2;dashed=1;curved=1;labelBackgroundColor=#FFFFFF;fontSize=10;" parent="1" source="auto-scaling" target="node-group-2b" edge="1">
          <mxGeometry width="50" height="50" relative="1" as="geometry">
            <mxPoint x="400" y="500" as="sourcePoint" />
            <mxPoint x="450" y="450" as="targetPoint" />
          </mxGeometry>
        </mxCell>
        <mxCell id="legend-box" value="Legend" style="rounded=0;whiteSpace=wrap;html=1;fillColor=#FFFFFF;strokeColor=#000000;strokeWidth=2;fontSize=14;fontStyle=1;verticalAlign=top;spacingTop=10;" parent="1" vertex="1">
          <mxGeometry x="1255" y="1020" width="400" height="80" as="geometry" />
        </mxCell>
        <mxCell id="legend-content" value="🔐 = KMS Encryption    📡 = Network Traffic    🔄 = Replication&#xa;🟢 = Public Subnet    🔵 = Private Subnet    🟠 = Compute Services&#xa;Solid Lines = Data Flow    Dashed Lines = Management/Security" style="text;html=1;strokeColor=none;fillColor=none;align=left;verticalAlign=middle;whiteSpace=wrap;rounded=0;fontSize=11;" parent="1" vertex="1">
          <mxGeometry x="1285" y="1050" width="380" height="50" as="geometry" />
        </mxCell>
        <mxCell id="7FXdd_6WUOssGaaU1AOl-2" value="" style="endArrow=classic;html=1;strokeColor=#F44336;strokeWidth=2;dashed=1;curved=1;labelBackgroundColor=#FFFFFF;fontSize=16;" edge="1" parent="1" source="kms" target="s3-tfstate">
          <mxGeometry width="50" height="50" relative="1" as="geometry">
            <mxPoint x="650" y="1080" as="sourcePoint" />
            <mxPoint x="278" y="1080" as="targetPoint" />
          </mxGeometry>
        </mxCell>
        <mxCell id="s3-tfstate" value="S3 Terraform State&#xa;Versioning + Locking" style="sketch=0;outlineConnect=0;fontColor=#232F3E;gradientColor=none;fillColor=#7AA116;strokeColor=none;dashed=0;verticalLabelPosition=bottom;verticalAlign=top;align=center;html=1;fontSize=12;fontStyle=1;aspect=fixed;pointerEvents=1;shape=mxgraph.aws4.s3;" parent="1" vertex="1">
          <mxGeometry x="320" y="1020" width="80" height="80" as="geometry" />
        </mxCell>
        <mxCell id="eks-control-plane" value="EKS Control Plane&#xa;(AWS Managed)" style="sketch=0;outlineConnect=0;fontColor=#232F3E;gradientColor=none;fillColor=#ED7100;strokeColor=#FF9800;strokeWidth=3;dashed=0;verticalLabelPosition=bottom;verticalAlign=top;align=center;html=1;fontSize=14;fontStyle=1;aspect=fixed;pointerEvents=1;shape=mxgraph.aws4.elastic_kubernetes_service;movable=1;resizable=1;rotatable=1;deletable=1;editable=1;locked=0;connectable=1;" parent="1" vertex="1">
          <mxGeometry x="827" y="330" width="100" height="100" as="geometry" />
        </mxCell>
        <mxCell id="7FXdd_6WUOssGaaU1AOl-4" value="Route Table&#xa;Private" style="sketch=0;outlineConnect=0;fontColor=#232F3E;gradientColor=none;fillColor=#4AB5B5;strokeColor=none;dashed=0;verticalLabelPosition=bottom;verticalAlign=top;align=center;html=1;fontSize=10;fontStyle=1;aspect=fixed;pointerEvents=1;shape=mxgraph.aws4.route_table;" vertex="1" parent="1">
          <mxGeometry x="1520" y="370" width="40" height="40" as="geometry" />
        </mxCell>
        <mxCell id="conn-eks-ng1a" value="Cluster Management" style="endArrow=classic;startArrow=classic;html=1;strokeColor=#FF9800;strokeWidth=2;dashed=1;curved=1;labelBackgroundColor=#FFFFFF;fontSize=10;" parent="1" source="eks-control-plane" target="node-group-1a" edge="1">
          <mxGeometry x="-1" y="59" width="50" height="50" relative="1" as="geometry">
            <mxPoint x="400" y="500" as="sourcePoint" />
            <mxPoint x="450" y="450" as="targetPoint" />
            <mxPoint x="19" y="-81" as="offset" />
          </mxGeometry>
        </mxCell>
      </root>
    </mxGraphModel>
  </diagram>
</mxfile>
